<svg id="c1dfb9a2-3f21-4c0a-a3f8-d4a4ad8bce69" data-name="Layer 1" xmlns="http://www.w3.org/2000/svg" width="263.4" height="41.8" viewBox="0 0 263.4 41.8"><title>brand</title><rect x="23.6" y="21.8" width="3.2" height="20" style="fill:#ffb200"/><rect x="23.6" y="1.8" width="3.2" height="20" style="fill:#006fff"/><path d="M7.2,37.9a2.7,2.7,0,0,1,.7.8,2.7,2.7,0,0,1,.7-.8,7.3,7.3,0,0,0,2.8-4.5h4.4V14.3a8.2,8.2,0,0,0-4.3,6.3l-.7,5.6a1.3,1.3,0,0,1,1.6,1,1.3,1.3,0,0,1-1,1.6l-.8.2a14.5,14.5,0,0,1-2.1-7.4L8.8,15a3.5,3.5,0,0,0-1-2.6,4,4,0,0,0-1,2.6l.4,6.6A13.7,13.7,0,0,1,5,29l-.8-.2a1.3,1.3,0,0,1,.6-2.6l-.6-5.6A8.1,8.1,0,0,0,0,14.3V33.4H4.4A7.3,7.3,0,0,0,7.2,37.9Zm5.1-12.8.6-4.4a5.7,5.7,0,0,1,1.6-3.6v9.7h-.8A2.9,2.9,0,0,0,12.3,25.1ZM11.8,30a2.5,2.5,0,0,0,1.9-1.9h.7v4H11.5a11.1,11.1,0,0,0-.2-1.9ZM7.3,36.2a5.1,5.1,0,0,1-1.5-2.8H7.3Zm1.2,0V33.4H10A5.1,5.1,0,0,1,8.5,36.2Zm1.7-4.1H8.6A1.6,1.6,0,0,1,10,30.5,7.8,7.8,0,0,1,10.2,32.1ZM7.9,26a15.6,15.6,0,0,0,1.4,3.3,2.3,2.3,0,0,0-1.4.9,3.1,3.1,0,0,0-1.4-.9A32.7,32.7,0,0,0,7.9,26ZM5.8,30.5a1.5,1.5,0,0,1,1.4,1.6H5.6A7.8,7.8,0,0,1,5.8,30.5ZM1.3,17.1a6.3,6.3,0,0,1,1.6,3.6l.6,4.4A3.5,3.5,0,0,0,2,26.8H1.3Zm0,15v-4H2A2.6,2.6,0,0,0,4,30l.5.2a11.1,11.1,0,0,0-.2,1.9Z" transform="translate(0 -3.2)" style="fill:#333"/><path d="M46.6,20.6H44.7V8.5H39.3V20.6H37.4V7h9.2Z" transform="translate(0 -3.2)"/><path d="M58.5,15.7a4.9,4.9,0,0,1-1.3,3.7,4.8,4.8,0,0,1-3.5,1.3,4.5,4.5,0,0,1-3.5-1.3,4.9,4.9,0,0,1-1.3-3.7V12a5.2,5.2,0,0,1,1.3-3.8,4.4,4.4,0,0,1,3.4-1.3,4.8,4.8,0,0,1,3.6,1.3A5.2,5.2,0,0,1,58.5,12Zm-1.9-3.8a4,4,0,0,0-.8-2.7,2.7,2.7,0,0,0-2.2-.9,2.6,2.6,0,0,0-2.1.9,4.5,4.5,0,0,0-.7,2.7v3.8a4.1,4.1,0,0,0,.7,2.7,2.7,2.7,0,0,0,2.2.9,2.6,2.6,0,0,0,2.1-.9,3.6,3.6,0,0,0,.8-2.7Z" transform="translate(0 -3.2)"/><path d="M69.7,7V20.6H67.8V8.5H63.9v4.7a12.4,12.4,0,0,1-1,5.6A3.1,3.1,0,0,1,60,20.6h-.4V19.1h.3a1.6,1.6,0,0,0,1.6-1.2,17,17,0,0,0,.4-4.7V7Z" transform="translate(0 -3.2)"/><path d="M80.3,8.5H76.6V20.6H74.7V8.5H71.1V7h9.2Z" transform="translate(0 -3.2)"/><path d="M87.3,17.1H83.2l-1,3.5h-2L84.3,7h1.9l4.1,13.6h-2Zm-3.7-1.5h3.3l-1.6-5.4h-.1Z" transform="translate(0 -3.2)"/><path d="M91.9,20.6V7h3.8a5,5,0,0,1,3.1,1,3.4,3.4,0,0,1,1.1,2.7,3.4,3.4,0,0,1-.5,1.7,2.6,2.6,0,0,1-1.3,1,2.6,2.6,0,0,1,1.8,1.2,3.7,3.7,0,0,1,.6,2.1,3.8,3.8,0,0,1-1,2.9,5,5,0,0,1-3.1,1Zm1.9-7.7H96a1.7,1.7,0,0,0,1.4-.6,2.1,2.1,0,0,0,.5-1.6,1.9,1.9,0,0,0-.5-1.6,2.4,2.4,0,0,0-1.7-.6H93.8Zm0,1.4v4.8h2.6a2.4,2.4,0,0,0,1.7-.6,3,3,0,0,0,.5-1.8,2.9,2.9,0,0,0-.5-1.7,1.9,1.9,0,0,0-1.6-.7H93.8Z" transform="translate(0 -3.2)"/><path d="M111.2,16.5h0a4.2,4.2,0,0,1-1.1,3.1,4.4,4.4,0,0,1-3.3,1.1,4.2,4.2,0,0,1-3.3-1.3,4.9,4.9,0,0,1-1.3-3.7V11.9a5.3,5.3,0,0,1,1.2-3.7,4.5,4.5,0,0,1,3.4-1.3,4.8,4.8,0,0,1,3.3,1,4.4,4.4,0,0,1,1.1,3.2h-1.9a2.9,2.9,0,0,0-.6-2.1,2.4,2.4,0,0,0-1.9-.7,2.4,2.4,0,0,0-2,.9,4.3,4.3,0,0,0-.7,2.7v3.8a4.8,4.8,0,0,0,.7,2.7,2.5,2.5,0,0,0,2,.9,2.2,2.2,0,0,0,1.9-.7,2.9,2.9,0,0,0,.6-2.1Z" transform="translate(0 -3.2)"/><path d="M115.2,12.4h2.4a3.9,3.9,0,0,1,3.1,1.1,3.7,3.7,0,0,1,1.2,2.9,3.9,3.9,0,0,1-1.2,3,4,4,0,0,1-3.1,1.2h-4.4V7h2Zm0,1.4v5.3h2.4a1.9,1.9,0,0,0,1.8-.8,3.6,3.6,0,0,0,.5-1.9,4.1,4.1,0,0,0-.5-1.9,2.1,2.1,0,0,0-1.8-.7Z" transform="translate(0 -3.2)"/><path d="M126.7,14.5h-1v6.1h-1.9V7h1.9v6h.9l3.8-6h2.3l-4.5,6.4,4.9,7.2h-2.5Z" transform="translate(0 -3.2)"/><path d="M141.8,7h1.9V20.6h-1.9V10.7h0l-5.4,10h-1.9V7h1.9v9.9h.1Z" transform="translate(0 -3.2)"/><path d="M153.6,7h1.9V20.6h-1.9V10.7h0l-5.4,10h-1.9V7h1.9v9.9h.1Zm0-3.8h0a2.1,2.1,0,0,1-.7,1.8,2.6,2.6,0,0,1-2,.7,2.7,2.7,0,0,1-2-.7,2.1,2.1,0,0,1-.6-1.8h1.4a1.7,1.7,0,0,0,.3,1,1,1,0,0,0,.9.4,1.3,1.3,0,0,0,.9-.4,1.7,1.7,0,0,0,.3-1Z" transform="translate(0 -3.2)"/><path d="M173.2,23.8h-1.9V20.6h-8v3.3h-1.9V19.1h.7c.7,0,1.2-.5,1.5-1.7a18.7,18.7,0,0,0,.7-5.1l.2-5.3h7.3V19.1h1.4Zm-7-11.5a23,23,0,0,1-.5,4.1,8.5,8.5,0,0,1-1,2.7h5.1V8.5h-3.4Z" transform="translate(0 -3.2)"/><path d="M181.4,14.3h-4.7v4.8h5.5v1.5h-7.4V7h7.4V8.5h-5.5v4.3h4.7Z" transform="translate(0 -3.2)"/><path d="M186.1,15.2v5.4h-1.9V7h4.4a3.9,3.9,0,0,1,3.1,1.2,3.6,3.6,0,0,1,1.1,2.9,3.7,3.7,0,0,1-1.1,3,3.8,3.8,0,0,1-3.1,1.1Zm0-1.4h2.5a1.9,1.9,0,0,0,1.7-.8,2.8,2.8,0,0,0,.6-1.8,2.9,2.9,0,0,0-.6-1.9,1.7,1.7,0,0,0-1.7-.8h-2.5Z" transform="translate(0 -3.2)"/><path d="M202.1,14.4h-.6v6.2h-1.9V14.4H199l-3.2,6.2h-2.4l4-7.3L193.7,7H196l3,5.9h.6V7h1.9v5.9h.6L205,7h2.4l-3.7,6.3,3.9,7.3h-2.4Z" transform="translate(0 -3.2)"/><path d="M215.2,17.1h-4.1l-1,3.5h-2L212.3,7h1.8l4.1,13.6h-2Zm-3.6-1.5h3.2l-1.6-5.4h0Z" transform="translate(0 -3.2)"/><path d="M219.8,20.6V7h3.8a4.6,4.6,0,0,1,3.1,1,3.1,3.1,0,0,1,1.1,2.7,3.3,3.3,0,0,1-.4,1.7,2.8,2.8,0,0,1-1.4,1,3,3,0,0,1,1.9,1.2,3.7,3.7,0,0,1,.6,2.1,3.8,3.8,0,0,1-1.1,2.9,4.5,4.5,0,0,1-3,1Zm1.9-7.7h2.2a2,2,0,0,0,1.5-.6,2.5,2.5,0,0,0,.5-1.6,2,2,0,0,0-.6-1.6,2.2,2.2,0,0,0-1.7-.6h-1.9Zm0,1.4v4.8h2.7a2.1,2.1,0,0,0,1.6-.6,2.4,2.4,0,0,0,.6-1.8A2.4,2.4,0,0,0,226,15a1.7,1.7,0,0,0-1.5-.7h-2.8Z" transform="translate(0 -3.2)"/><path d="M239.7,20.6h-1.9v-6h-5.4v6h-1.9V7h1.9v6.2h5.4V7h1.9Z" transform="translate(0 -3.2)"/><path d="M249.7,7h1.9V20.6h-1.9V10.7h-.1l-5.3,10h-2V7h2v9.9h0Z" transform="translate(0 -3.2)"/><path d="M261.5,7h1.9V20.6h-1.9V10.7h-.1l-5.3,10h-1.9V7h1.9v9.9h0Zm0-3.8h0a2.1,2.1,0,0,1-.7,1.8,3.2,3.2,0,0,1-4,0,2.1,2.1,0,0,1-.7-1.8h1.5a1.7,1.7,0,0,0,.3,1,1,1,0,0,0,.9.4,1.3,1.3,0,0,0,.9-.4,1.7,1.7,0,0,0,.3-1Z" transform="translate(0 -3.2)"/><path d="M43.1,38.1h.1L46.5,27H49V40.6H47V30.8h0l-3.2,9.8H42.5l-3.2-9.9h-.1v9.9H37.3V27h2.5Z" transform="translate(0 -3.2)"/><path d="M58.1,34.3H53.5v4.8H59v1.5H51.5V27h7.4v1.5H53.5v4.3h4.6Z" transform="translate(0 -3.2)"/><path d="M71.7,43.8H69.8V40.6h-8v3.3H59.9V39.1h.7c.7,0,1.2-.5,1.5-1.7a18.7,18.7,0,0,0,.7-5.1L63,27h7.2V39.1h1.5Zm-7-11.5a23,23,0,0,1-.5,4.1,8.5,8.5,0,0,1-1,2.7h5.1V28.5H64.9Z" transform="translate(0 -3.2)"/><path d="M80.6,27h1.9V40.6H80.6V30.7h-.1l-5.3,10H73.3V27h1.9v9.9h0Z" transform="translate(0 -3.2)"/><path d="M93.8,27V40.6H91.9V34.9l-1.4.3H89.1a4.4,4.4,0,0,1-3.2-1,3.9,3.9,0,0,1-1.1-3.2V27h1.9v4.1a3.4,3.4,0,0,0,.6,2.2,2.2,2.2,0,0,0,1.8.6h1.4l1.4-.4V27Z" transform="translate(0 -3.2)"/><path d="M105.6,40.6h-1.9v-6H98.3v6H96.4V27h1.9v6.2h5.4V27h1.9Z" transform="translate(0 -3.2)"/><path d="M115.6,27h1.9V40.6h-1.9V30.7h-.1l-5.3,10h-2V27h2v9.9h0Z" transform="translate(0 -3.2)"/><path d="M127.4,27h1.9V40.6h-1.9V30.7h-.1l-5.3,10h-2V27h2v9.9h0Zm-.1-3.8h.1a2.1,2.1,0,0,1-.7,1.8,2.7,2.7,0,0,1-2,.7,2.6,2.6,0,0,1-2-.7,2.1,2.1,0,0,1-.7-1.8h1.5a1.7,1.7,0,0,0,.3,1,1,1,0,0,0,.9.4,1.3,1.3,0,0,0,.9-.4,1.7,1.7,0,0,0,.3-1Z" transform="translate(0 -3.2)"/><path d="M139.8,33.7l.4,1h0L143,27h2.1l-4.3,11.2a10.5,10.5,0,0,1-1.2,1.9,3,3,0,0,1-2,.7l-.9-.2-.8-.2.2-1.4.7.2h.6a1.4,1.4,0,0,0,1.1-.4,2.9,2.9,0,0,0,.6-1.1l.3-.8-4.2-10h2.2Z" transform="translate(0 -3.2)"/><path d="M156.1,40.6h-1.9v-6h-5.4v6h-1.9V27h1.9v6.2h5.4V27h1.9Z" transform="translate(0 -3.2)"/><path d="M160.9,40.6h-2V27h2Z" transform="translate(0 -3.2)"/><path d="M163.7,40.6V27h3.8a4.5,4.5,0,0,1,3.1,1,3.6,3.6,0,0,1,.6,4.4,2.6,2.6,0,0,1-1.3,1,2.6,2.6,0,0,1,1.8,1.2,3.8,3.8,0,0,1,.7,2.1,3.8,3.8,0,0,1-1.1,2.9,4.9,4.9,0,0,1-3,1Zm1.9-7.7h2.2a1.7,1.7,0,0,0,1.4-.6,2.1,2.1,0,0,0,.6-1.6,2,2,0,0,0-.6-1.6,2.4,2.4,0,0,0-1.7-.6h-1.9Zm0,1.4v4.8h2.7a2.3,2.3,0,0,0,1.6-.6,3,3,0,0,0,.5-1.8,2.9,2.9,0,0,0-.5-1.7,1.9,1.9,0,0,0-1.6-.7h-2.7Z" transform="translate(0 -3.2)"/><path d="M181,34.3h-4.7v4.8h5.5v1.5h-7.4V27h7.4v1.5h-5.5v4.3H181Z" transform="translate(0 -3.2)"/><path d="M185.6,35.2v5.4h-1.9V27h4.5a4.1,4.1,0,0,1,3.1,1.2,4,4,0,0,1,1.1,2.9,3.8,3.8,0,0,1-4.2,4.1Zm0-1.4h2.6a2.1,2.1,0,0,0,1.7-.8,2.8,2.8,0,0,0,.6-1.8,2.9,2.9,0,0,0-.6-1.9,1.8,1.8,0,0,0-1.7-.8h-2.6Z" transform="translate(0 -3.2)"/><path d="M203,36.5h.1a3.9,3.9,0,0,1-1.2,3.1,4.2,4.2,0,0,1-3.2,1.2,4.6,4.6,0,0,1-3.4-1.4,5.3,5.3,0,0,1-1.2-3.7V31.9a5.3,5.3,0,0,1,1.2-3.7,4.2,4.2,0,0,1,3.3-1.3,4.8,4.8,0,0,1,3.3,1,4.1,4.1,0,0,1,1.2,3.2h-1.9a2.9,2.9,0,0,0-.6-2.1,2.6,2.6,0,0,0-2-.7,2.2,2.2,0,0,0-1.9.9,4.3,4.3,0,0,0-.7,2.7v3.8a4.1,4.1,0,0,0,.7,2.7,2.4,2.4,0,0,0,2,.9,2.4,2.4,0,0,0,1.9-.7,2.9,2.9,0,0,0,.6-2.1Z" transform="translate(0 -3.2)"/><path d="M212.4,27h2V40.6h-2V30.7h0l-5.4,10h-1.9V27H207v9.9h.1Z" transform="translate(0 -3.2)"/><path d="M224.9,28.5h-3.6V40.6h-2V28.5h-3.6V27h9.2Z" transform="translate(0 -3.2)"/><path d="M233.2,34.3h-4.7v4.8H234v1.5h-7.4V27h7.3v1.5h-5.4v4.3h4.7Z" transform="translate(0 -3.2)"/><path d="M244.2,28.5h-3.7V40.6h-1.9V28.5H235V27h9.2Z" transform="translate(0 -3.2)"/></svg>