<svg width="35" height="49" viewBox="0 0 35 49" fill="none" xmlns="http://www.w3.org/2000/svg">
<rect x="26.7917" y="44" width="3.15197" height="20" transform="rotate(180 26.7917 44)" fill="#FFB200"/>
<rect x="26.7917" y="24" width="3.15197" height="20" transform="rotate(180 26.7917 24)" fill="#006FFF"/>
<path d="M7.19281 36.8939C7.4852 37.128 7.71911 37.3622 7.89454 37.6842C8.06998 37.3915 8.30389 37.128 8.59628 36.8939C10.1167 35.7522 11.0524 34.1423 11.374 32.4152H15.7598V13.3297C13.5084 14.5591 11.8418 16.8423 11.5202 19.6232L10.8477 25.2142C11.5494 25.0386 12.2512 25.5069 12.4266 26.2095C12.602 26.912 12.1342 27.6145 11.4325 27.7902L10.643 27.9658C9.29802 25.8289 8.50856 23.2822 8.50856 20.5892L8.83019 13.9737C8.83019 12.9784 8.45009 12.071 7.83607 11.3684C7.22205 12.071 6.84194 12.9784 6.84194 13.9737L7.16357 20.5892C7.16357 23.3115 6.37411 25.8289 5.02912 27.9658L4.23966 27.7902C3.53792 27.6145 3.09934 26.912 3.24553 26.2095C3.42097 25.5069 4.12271 25.0679 4.82444 25.2142L4.15195 19.6232C3.91803 16.8423 2.25141 14.5591 0 13.3297V32.4152H4.38586C4.70749 34.1423 5.67238 35.7522 7.19281 36.8939ZM12.3389 24.1311L12.8652 19.7403C13.0406 18.3352 13.6254 17.0472 14.4733 16.052V25.8289H13.7424C13.5377 25.0679 13.0114 24.4531 12.3389 24.1311ZM11.7541 29.0489C12.7482 28.8147 13.4792 28.0536 13.7131 27.1462H14.4441V31.098H11.5202C11.5202 30.4247 11.4325 29.7807 11.257 29.166L11.7541 29.0489ZM7.25128 35.1961C6.52031 34.435 5.99401 33.469 5.76009 32.4152H7.25128V35.1961ZM8.5378 35.1961V32.4152H10.029C9.79508 33.469 9.26878 34.435 8.5378 35.1961ZM10.2044 31.098H8.56704C8.56704 30.2783 9.18106 29.5758 9.97052 29.4587C10.1167 29.9856 10.2044 30.5418 10.2044 31.098ZM7.89454 24.98C8.24541 26.1217 8.74248 27.234 9.32726 28.2585C8.74248 28.4342 8.24541 28.7854 7.89454 29.2245C7.51444 28.7562 7.01737 28.4342 6.46183 28.2585C7.04661 27.234 7.54367 26.1509 7.89454 24.98ZM5.81857 29.4587C6.60803 29.5758 7.22205 30.2491 7.22205 31.098H5.58466C5.58466 30.5418 5.67238 29.9856 5.81857 29.4587ZM1.31576 16.052C2.19293 17.0472 2.74847 18.3352 2.9239 19.7403L3.45021 24.1311C2.77771 24.4531 2.25141 25.0971 2.04673 25.8289H1.31576V16.052ZM1.31576 31.098V27.1462H2.04673C2.28065 28.0829 3.01162 28.844 4.00575 29.0489L4.53205 29.166C4.35662 29.7807 4.2689 30.4247 4.2689 31.098H1.31576Z" fill="#333333"/>
</svg>
